# xmcd
#
# Track frame offsets: 
#        150
#        14074
#        28174
#        38653
#        50209
#        62220
#        74203
#        87461
#        100869
#        114305
#        128787
#        141174
#        156197
#        169890
#        183084
#        194505
#        206197
#        219523
#        236035
#        249529
#        263877
#        275547
#        288099
#        299967
#        310223
#        322531
#        334143
#
# Disc length: 4652 seconds
#
# Revision: 0
# Processed by: cddbd v1.5.2PL0 Copyright (c) Steve Scherf et al.
# Submitted via: ExactAudioCopy v1.0b4
#
DISCID=b1122a1b
DTITLE=Various Artist - Down Home Blues - Detroit  disc 1
DYEAR=2016
DGENRE=Blues
TTITLE0=John Lee Hooker - Miss Lorraine
TTITLE1=John Lee Hooker - Talkin' Boogie
TTITLE2=L C Green - Come Back Sugar Mama
TTITLE3=L C Green - Little Machine
TTITLE4=Slim Pickens - Papa's Boogie
TTITLE5=Baby Boy Warren - My Special Friend Blues
TTITLE6=Baby Boy Warren - Nervy Woman Blues
TTITLE7=Eddie Burns - Making A Fool Out Of Me
TTITLE8=Eddie Burns - Squeeze Me Baby
TTITLE9=Bobo Jenkins - Democrat Blues (Democrat Man)
TTITLE10=Bobo Jenkins - Bad Luck And Trouble
TTITLE11=Calvin Frazier - Lillie Mae (Version 1)
TTITLE12=Calvin Frazier - Rockhouse
TTITLE13=John Brim - Bus Driver
TTITLE14=L C Green - When The Sun Is Shining
TTITLE15=L C Green - Hold Me In Your Arms
TTITLE16=Clarence Posey - Rockin' Chair Boogie
TTITLE17=Detroit Slim - Nelly Mae
TTITLE18=Baby Boy Warren - Lonesome Cabin Blues
TTITLE19=Baby Boy Warren - Don't Want No Skinny Woman
TTITLE20=Eddie Burns - Gangster Blues
TTITLE21=Eddie Burns - Grievin' Blues
TTITLE22=Sam Kelly - Ramblin' Around Blues
TTITLE23=Martee Bradley - Now I'll Have To Sing The Blues
TTITLE24=Martee Bradley - Winter Time Is Comin'
TTITLE25=Baby Boy Warren - Taxi Driver Blues
TTITLE26=Baby Boy Warren - Bad Lover Blues
EXTD=
EXTT0=
EXTT1=
EXTT2=
EXTT3=
EXTT4=
EXTT5=
EXTT6=
EXTT7=
EXTT8=
EXTT9=
EXTT10=
EXTT11=
EXTT12=
EXTT13=
EXTT14=
EXTT15=
EXTT16=
EXTT17=
EXTT18=
EXTT19=
EXTT20=
EXTT21=
EXTT22=
EXTT23=
EXTT24=
EXTT25=
EXTT26=
PLAYORDER=
